<svg width="146" height="146" viewBox="0 0 146 146" fill="none" xmlns="http://www.w3.org/2000/svg">
<circle cx="73.2588" cy="75.5764" r="69.5271" transform="rotate(-0.574244 73.2588 75.5764)" fill="#FA0000"/>
<path d="M141.493 70.6422C141.584 79.7722 139.877 88.8308 136.467 97.3008C133.058 105.771 128.014 113.486 121.623 120.007C115.232 126.527 107.619 131.725 99.2187 135.304C90.8187 138.882 81.7961 140.771 72.6662 140.863C63.5362 140.954 54.4776 139.246 46.0076 135.837C37.5376 132.428 29.822 127.384 23.3015 120.992C16.7809 114.601 11.583 106.988 8.00457 98.5883C4.42614 90.1883 2.53725 81.1658 2.44574 72.0358L71.9694 71.339L141.493 70.6422Z" fill="white"/>
<path fill-rule="evenodd" clip-rule="evenodd" d="M130.276 72.4259C130.593 104.059 105.207 129.959 73.5741 130.276C41.9412 130.593 16.0407 105.207 15.7236 73.5741C15.4066 41.9412 40.7931 16.0407 72.4259 15.7237C104.059 15.4066 129.959 40.7931 130.276 72.4259ZM145.276 72.2756C145.676 112.192 113.641 144.876 73.7244 145.276C33.8077 145.676 1.12448 113.641 0.724403 73.7244C0.324326 33.8077 32.3589 1.12448 72.2756 0.724407C112.192 0.32433 144.876 32.3589 145.276 72.2756ZM65.9983 73.0702C65.9595 69.2032 69.0629 66.037 72.9298 65.9983C76.7968 65.9595 79.963 69.0629 80.0017 72.9298C80.0405 76.7968 76.9371 79.963 73.0702 80.0017C69.2033 80.0405 66.0371 76.9371 65.9983 73.0702ZM95.9968 72.7695C96.1241 85.4703 85.9313 95.8695 73.2305 95.9968C60.5297 96.1241 50.1305 85.9313 50.0032 73.2305C49.8759 60.5297 60.0688 50.1305 72.7695 50.0032C85.4703 49.8759 95.8695 60.0687 95.9968 72.7695Z" fill="black"/>
<circle cx="72.9127" cy="73.4881" r="15.986" transform="rotate(-0.574244 72.9127 73.4881)" fill="white"/>
<rect x="7.96318" y="66.1921" width="45.772" height="11.2982" fill="#0C0C0C"/>
<rect x="94.003" y="67.0612" width="45.772" height="11.2982" fill="#0C0C0C"/>
</svg>
