<svg xmlns="http://www.w3.org/2000/svg" xmlns:xlink="http://www.w3.org/1999/xlink" width="100%" height="898.9" viewBox="0 0 1325 898.9"><defs><radialGradient id="af194da6-9dc7-4de7-a814-0702b5274aa0" cx="667.05" cy="623.58" fx="637.0690873938636" fy="1196.201385957618" r="868.84" gradientUnits="userSpaceOnUse"><stop offset="0.66" stop-color="#fff"/><stop offset="1" stop-color="#00aeef" stop-opacity="0.2"/></radialGradient></defs><title>backgroud</title><g id="ec94c0bb-737a-4a5a-8acd-191a75e53040" data-name="Layer 2"><g id="bcb08da4-7581-410d-8446-575545defbef" data-name="Layer 1"><path d="M1325,898.9H0V4.16H1325Z" style="fill-rule:evenodd;fill:url(#af194da6-9dc7-4de7-a814-0702b5274aa0)"/><polygon points="63.66 9.1 234.19 173.2 311.5 225.09 0 0 63.66 9.1" style="fill:#fff;fill-rule:evenodd"/><polygon points="131.89 83.52 302.55 247.49 379.89 299.32 68.22 74.47 131.89 83.52" style="fill:#fff;fill-rule:evenodd"/><polygon points="1265.07 17.14 1143.51 181.24 1088.41 233.14 1310.45 8.04 1265.07 17.14" style="fill:#fff;fill-rule:evenodd"/><polygon points="1220.54 90.04 1098.89 254.01 1043.76 305.84 1265.93 81 1220.54 90.04" style="fill:#fff;fill-rule:evenodd"/><polygon points="451.75 78.68 537.08 193.43 575.76 229.71 419.92 72.34 451.75 78.68" style="fill:#fff;fill-rule:evenodd"/><polygon points="63.66 10.1 234.19 174.2 311.5 226.09 0 1 63.66 10.1" style="fill:#fff;fill-rule:evenodd"/><polygon points="302.3 5.17 370.51 5.17 511.49 154.52 345.5 12.04 302.3 5.17" style="fill:#fff;fill-rule:evenodd"/><polygon points="848.44 12.04 800.69 123.59 848.44 0 848.44 12.04" style="fill:#fff;fill-rule:evenodd"/></g></g></svg>